<svg width="130" height="39" viewBox="0 0 130 39" fill="none" xmlns="http://www.w3.org/2000/svg">
<path d="M118.517 21.7478C118.343 21.1103 117.774 18.8789 113.637 18.8789C110.962 18.8789 109.451 19.7616 109.154 20.0068C108.782 20.2766 108.609 20.5708 108.609 20.8896C108.609 21.0857 108.634 21.3309 108.782 21.6252C109.08 22.2137 109.501 22.557 109.501 22.557C109.501 22.557 111.358 21.4045 113.365 21.4045C114.38 21.4045 115.074 21.6007 115.421 21.944C115.965 22.5324 115.941 23.7094 115.941 23.7094C115.842 23.7094 115.743 23.7094 115.643 23.7094C115.643 23.7094 107.816 23.2681 107.816 28.589C107.816 29.3736 107.965 30.0602 108.237 30.5751C108.51 31.0901 109.327 32.6349 112.176 32.6349C114.777 32.6349 115.743 31.605 116.139 31.2617C116.461 32.1935 117.154 32.8065 118.789 32.4877V23.8811C118.74 23.0719 118.665 22.3608 118.517 21.7478ZM115.941 28.4664C115.866 29.9867 110.64 31.5069 110.64 28.4419C110.64 25.622 115.941 25.9898 115.941 25.9898V28.4664Z" fill="#4D4D4F"/>
<path d="M129.141 22.4589C129.141 22.4589 128.323 21.6497 127.184 21.6497C126.094 21.6497 125.227 22.0175 125.227 23.4642V32.4142H122.379V23.4397C122.379 20.5708 124.162 18.8789 126.961 18.8789C127.878 18.8789 129.141 19.1977 129.686 19.6881C130.107 20.0559 130.057 20.6689 129.81 21.3064C129.612 21.6742 129.29 22.2137 129.141 22.4589Z" fill="#4D4D4F"/>
<path d="M84.9268 18.8789C80.8151 18.8789 78.6602 21.993 78.6602 25.8182C78.6602 29.6679 80.8151 32.7575 84.9268 32.7575C89.0384 32.7575 91.1933 29.6434 91.1933 25.8182C91.1933 21.993 89.0137 18.8789 84.9268 18.8789ZM84.9268 30.2809C82.4994 30.2809 81.6572 28.2947 81.6572 25.8427C81.6572 23.3907 82.4994 21.4045 84.9268 21.4045C87.3541 21.4045 88.1963 23.3907 88.1963 25.8427C88.1963 28.2947 87.3541 30.2809 84.9268 30.2809Z" fill="#4D4D4F"/>
<path d="M100.285 18.8795C97.9814 18.8795 96.9658 19.8358 96.6438 20.1546C96.0494 18.7324 93.9688 19.1738 93.9688 19.1738V38.2261H96.8172V31.7772C97.0154 31.9244 97.6841 32.8071 100.012 32.8071C100.656 32.8071 105.784 32.8071 105.784 25.6471C105.784 18.4627 100.285 18.8795 100.285 18.8795ZM99.6409 30.2815C97.9318 30.2815 96.9411 29.08 96.842 28.9819V22.9254C96.842 22.5085 97.0897 22.1652 97.5603 21.871C98.0804 21.5522 98.774 21.3806 99.5666 21.3806C100.161 21.3806 102.762 21.3561 102.762 25.7697C102.762 27.2655 102.564 30.2815 99.6409 30.2815Z" fill="#4D4D4F"/>
<path d="M61.1515 19.0787V26.8272C61.1515 30.211 59.591 32.7856 55.5289 32.7856C51.4915 32.7856 49.9062 30.211 49.9062 26.8272V19.0787C51.2933 18.8581 52.7547 19.2013 52.7547 21.0158V26.8272C52.7547 28.8624 53.6959 30.2355 55.5289 30.2355C57.337 30.2355 58.2782 28.8379 58.2782 26.8272V21.0158C58.2782 19.2013 59.7644 18.8581 61.1515 19.0787Z" fill="#4D4D4F"/>
<path d="M73.0152 30.551V24.7397C73.0152 22.7045 72.0739 21.3314 70.2658 21.3314C68.4576 21.3314 67.5164 22.729 67.5164 24.7397V30.551C67.5164 32.3656 66.055 32.7088 64.668 32.4882V24.7397C64.668 21.3559 66.2284 18.7812 70.2906 18.7812C74.3279 18.7812 75.9132 21.3559 75.9132 24.7397V32.4882C74.5013 32.7088 73.0152 32.3656 73.0152 30.551Z" fill="#4D4D4F"/>
<path d="M12.8994 34.868C8.14373 34.868 4.30451 31.0428 4.30451 26.3594V11.3039H2.6202C1.23313 11.3039 0.09375 10.176 0.09375 8.80283V2.50108C0.09375 1.12794 1.23313 0 2.6202 0H17.8037C19.1908 0 20.3302 1.12794 20.3302 2.50108V8.80283C20.3302 10.176 19.1908 11.3039 17.8037 11.3039H16.1937V23.0737H29.0984V11.3039H27.4884C26.1014 11.3039 24.962 10.176 24.962 8.80283V2.50108C24.962 1.12794 26.1014 0 27.4884 0H42.6719C44.059 0 45.1984 1.12794 45.1984 2.50108V8.80283C45.1984 10.176 44.059 11.3039 42.6719 11.3039H40.9876V26.3594C40.9876 31.0674 37.1237 34.868 32.3927 34.868H12.8994Z" fill="#EC1C24"/>
<path d="M12.8983 33.937C8.6875 33.937 5.24458 30.5286 5.24458 26.3602V10.3483H2.61905C1.75213 10.3483 1.05859 9.66178 1.05859 8.80356V2.50182C1.05859 1.6436 1.75213 0.957031 2.61905 0.957031H17.8025C18.6695 0.957031 19.363 1.6436 19.363 2.50182V8.80356C19.363 9.66178 18.6695 10.3483 17.8025 10.3483H15.2513V23.2461C15.2513 23.6629 15.5981 24.0062 16.0192 24.0062H29.3202C29.7413 24.0062 30.0881 23.6629 30.0881 23.2461V10.3483H27.5368C26.6699 10.3483 25.9764 9.66178 25.9764 8.80356V2.50182C25.9764 1.6436 26.6699 0.957031 27.5368 0.957031H42.7203C43.5872 0.957031 44.2808 1.6436 44.2808 2.50182V8.80356C44.2808 9.66178 43.5872 10.3483 42.7203 10.3483H40.0948V26.3602C40.0948 30.5286 36.6519 33.937 32.4411 33.937H12.8983Z" fill="white"/>
</svg>
