<svg width="129" height="40" viewBox="0 0 129 40" fill="none" xmlns="http://www.w3.org/2000/svg">
<g clip-path="url(#clip0_3887_7087)">
<path fill-rule="evenodd" clip-rule="evenodd" d="M77.9737 28.4578C77.9737 26.8613 78.1299 24.8044 79.9728 24.3438C80.4725 24.221 80.9723 24.221 81.4721 24.3131C81.722 24.3438 82.0031 24.4666 82.1905 24.5587C82.4091 24.6508 82.6278 24.7736 82.784 24.9272C82.9402 25.0807 83.0651 25.2956 83.0651 25.5719V30.7604C83.0651 30.9753 82.3779 31.4358 82.1905 31.5586C81.0348 32.1726 79.2856 32.1112 78.5047 30.8218C78.2236 30.2691 77.9737 29.3788 77.9737 28.4578ZM75.2874 27.9666C75.2874 28.2736 75.3186 28.3657 75.3499 28.5806C75.4436 29.6551 75.5373 30.7911 76.1308 31.7735C76.693 32.7559 77.6301 33.6156 78.7858 33.9226C79.7853 34.1989 81.1597 34.291 82.128 33.8919C82.8152 33.6463 82.7528 33.5235 83.0963 33.3085C83.0963 34.0761 83.0651 34.7822 82.784 35.4576C82.4716 36.1944 81.6283 36.7164 80.7849 36.8085C80.6599 36.8085 80.535 36.8085 80.4101 36.8085C79.2543 36.9927 77.7863 36.5322 76.9429 35.7032C76.818 35.5804 76.7555 35.4883 76.6305 35.4269C76.2245 36.0102 75.0687 36.7471 75.9434 37.883C76.0995 38.0672 76.3806 38.2514 76.5993 38.3435C76.7242 38.4049 76.693 38.4049 76.7867 38.4356C78.286 39.1724 80.7537 39.1724 82.253 38.7733C83.5024 38.4356 84.5332 37.6374 85.0017 36.5629C85.439 35.519 85.6577 34.5366 85.6577 33.3392V22.3176C84.9705 22.2255 84.1271 22.2255 83.6273 22.7474C83.5024 22.8702 83.4087 22.993 83.3462 23.1465C83.1276 23.0851 83.2213 23.0851 83.0339 22.9623C81.2534 21.6114 77.9737 21.7649 76.3806 23.914C76.0995 24.2824 75.9121 24.7429 75.7247 25.1728C75.5373 25.6947 75.4748 26.2166 75.3811 26.7385L75.2874 27.9666ZM42.6148 31.9577C41.4278 31.9577 41.1467 31.8963 40.2409 31.2209C40.0535 31.0981 39.866 31.006 39.866 30.699V25.6947C39.866 24.3131 42.5211 23.914 43.5519 24.5587C45.1761 25.5412 45.1449 27.721 44.9262 29.5016C44.7701 30.6683 43.9579 31.9577 42.6148 31.9577ZM39.7099 23.1465C39.4912 22.7474 39.5224 22.8088 39.2413 22.5939C38.8353 22.2869 37.3359 22.0413 37.3359 22.4711V38.8347H39.866V33.3085C40.0847 33.4313 40.1159 33.4928 40.3346 33.6156C40.522 33.7384 40.6469 33.7998 40.8656 33.8612C42.1462 34.291 43.9267 34.1989 45.0512 33.5542C46.8941 32.4796 47.7062 30.4533 47.7062 28.3657C47.7062 27.2297 47.7375 26.4008 47.3626 25.3263C47.1127 24.5587 46.7691 23.9447 46.2694 23.3614L45.5822 22.8088C45.426 22.7167 45.3635 22.6553 45.2074 22.5939C44.895 22.4404 44.6763 22.3176 44.3328 22.2255C43.302 21.9492 41.9901 21.9799 40.9905 22.3483C40.1159 22.7474 40.0847 22.9623 39.7099 23.1465ZM114.801 28.3043H115.8V30.3612C115.8 31.1595 114.551 31.6814 113.926 31.8349C110.896 32.5103 110.584 29.9314 112.052 29.0104C112.677 28.5806 113.801 28.3043 114.801 28.3043ZM109.428 23.8219C109.428 24.6815 110.022 25.05 110.209 25.3263C110.428 25.2035 110.615 25.1114 110.865 24.9886C111.833 24.528 114.457 23.8833 115.363 24.8044C115.519 24.9579 115.613 25.1728 115.706 25.4184C115.769 25.6026 115.831 26.0631 115.831 26.278C112.833 26.278 110.022 26.8613 109.022 28.9797C108.491 30.0849 108.585 31.6814 109.397 32.7559C110.834 34.6594 114.426 34.1989 115.644 33.155C115.831 33.0015 115.769 33.0322 115.988 32.8787C116.3 33.5542 116.644 33.984 117.549 33.984C117.862 33.984 117.924 33.9226 118.268 33.9226V26.0938C118.268 24.8351 117.987 23.914 117.175 23.1158C115.3 21.2123 109.428 22.2562 109.428 23.8219ZM66.1353 30.6683C66.1353 30.0542 66.0728 29.7472 66.5726 29.2867C67.6034 28.2736 69.2589 28.3043 70.6957 28.3043V30.4533C70.6957 31.2823 68.3843 32.3568 66.9162 31.7428C66.5414 31.5893 66.1353 31.1595 66.1353 30.6683ZM64.2612 23.8219C64.2612 24.6201 64.8546 25.05 65.0421 25.3263C66.354 24.6508 67.1036 24.3438 68.7591 24.3438C70.1335 24.3438 70.6645 25.05 70.6645 26.278C68.7591 26.278 67.1973 26.4622 65.8542 27.1376C64.636 27.721 63.574 28.7648 63.574 30.2077C63.574 31.3744 63.6365 32.4489 64.6985 33.2471C65.0421 33.4928 65.3544 33.677 65.7917 33.8305C67.0724 34.2603 69.0402 34.1068 70.1335 33.4006C70.3834 33.2164 70.5708 33.0629 70.8207 32.9094C70.9769 33.2164 71.1018 33.4928 71.3829 33.7077C71.9139 34.1068 72.5074 34.0147 73.1321 33.9533V26.0631C73.1321 24.3131 72.4762 22.993 70.7582 22.4097C69.4151 21.9799 67.1349 22.0413 65.8542 22.5632C65.292 22.8088 65.4169 22.7167 64.8547 23.0237C64.7297 23.1158 64.5423 23.2079 64.4486 23.3307C64.4174 23.3921 64.2612 23.6991 64.2612 23.8219ZM93.7165 31.9577C92.6233 31.9577 91.8736 31.8963 91.2176 30.9446C90.2806 29.5937 90.1244 25.7254 91.9673 24.6815C92.7794 24.221 94.1226 24.221 94.8722 24.7122C95.2158 24.9579 95.2471 24.9579 95.4969 25.2649C96.7776 26.9227 96.6214 31.9577 93.7165 31.9577ZM87.9379 27.8131C87.9379 29.7472 88.2502 31.1902 89.4684 32.6024L89.9994 33.0629C90.6242 33.6463 92.061 34.1682 92.9981 34.1682H93.7165C96.0904 34.1682 97.8084 32.6024 98.4956 30.5761C98.6518 30.1156 98.8392 29.3174 98.8392 28.8262C98.8392 28.4885 98.9016 28.4271 98.9016 28.1508C98.9016 27.8745 98.8392 27.8438 98.8392 27.5367C98.8392 25.8789 97.9333 23.9447 96.434 22.9623C94.5911 21.7649 91.5612 21.857 89.937 23.3C89.5621 23.6377 89.8745 23.2693 89.406 23.8219C89.281 23.9754 89.2498 23.9754 89.0936 24.1903C88.9999 24.3438 88.9062 24.4359 88.8125 24.5894C88.2815 25.5105 87.9379 26.6157 87.9379 27.8131ZM126.452 30.6068C126.452 31.0674 126.233 31.4665 125.827 31.7121C124.609 32.4489 122.578 31.8349 121.516 30.9753C121.36 30.8525 121.329 30.8218 121.173 30.699C120.579 31.8349 119.548 33.0015 121.922 33.7691C123.39 34.2603 125.452 34.291 126.858 33.5849C127.482 33.2778 128.045 32.7866 128.451 32.2033C128.732 31.8042 128.888 31.2823 128.919 30.7297V29.9621C128.857 29.2867 128.638 28.642 128.201 28.2122C127.295 27.3218 126.67 27.0762 125.327 26.7385L123.984 26.4008C123.609 26.2473 123.141 26.0631 122.984 25.664C122.453 24.221 124.734 23.7298 126.545 24.528L127.482 25.1114C127.795 25.357 127.826 25.5105 128.326 24.7429C129.044 23.6684 128.357 22.9009 127.264 22.5018C125.546 21.857 123.422 21.8263 121.829 22.8395C119.83 24.1289 119.58 27.8131 123.515 28.7648C123.703 28.7955 123.828 28.8569 123.953 28.8876C124.171 28.9183 124.296 28.949 124.453 29.0104C124.796 29.1025 125.077 29.1332 125.39 29.256C125.702 29.3788 125.858 29.5323 126.077 29.7472C126.327 29.9621 126.452 30.2691 126.452 30.6068ZM55.6713 19.0326V30.6376C55.6713 31.3437 55.8275 32.1419 56.1086 32.6945C56.2961 33.0629 56.5459 33.3392 56.8895 33.5849C58.0765 34.5059 60.3567 34.291 61.5749 33.5849C62.1996 33.2164 62.5744 32.6638 62.2308 31.8963C62.1371 31.6814 62.0122 31.5279 61.8873 31.3437C61.8248 31.2516 61.5124 30.9139 61.45 30.8525C61.2001 31.006 61.2625 31.0674 60.8877 31.3744C60.2942 31.8656 60.1068 31.9577 59.2322 31.9577C58.5138 31.9577 58.1702 31.2516 58.1702 30.5147V24.528H60.4192C61.6998 24.528 62.0747 23.3307 61.8248 22.3176H58.2014C58.2014 21.2123 58.3888 20.0764 57.7017 19.4317C57.1082 18.879 56.3585 18.9404 55.6713 19.0326ZM101.213 25.9096V33.7998H103.743V25.9096C103.743 25.5105 103.899 25.1421 104.087 24.9272C104.618 24.3745 105.805 24.4359 106.429 24.7429C106.96 24.9886 106.804 24.9886 107.117 25.1728C107.273 25.05 107.179 25.1421 107.273 24.9579C107.585 24.4359 108.147 23.5763 107.741 22.9623C107.179 22.1027 104.868 21.857 103.431 22.4097C101.994 22.9623 101.213 24.3745 101.213 25.9096ZM50.1426 22.2869C50.1426 24.6815 50.1426 27.0762 50.1426 29.4709C50.1426 30.2691 50.0177 32.4182 50.2363 32.9708C50.3613 33.3085 50.4862 33.4313 50.7048 33.6156C50.7673 33.677 50.7361 33.6463 50.8298 33.7077C51.1109 33.8919 51.6419 33.984 51.9543 33.984C52.1105 33.984 52.1105 33.9533 52.3291 33.9533C52.5165 33.9533 52.6727 33.984 52.6727 33.7998V24.4973C52.6727 23.8833 52.6102 23.2386 52.3603 22.8702C51.7981 22.1641 50.5799 22.1027 50.1426 22.2869ZM67.0099 20.6597C67.2286 20.9667 67.947 21.2737 68.2906 21.2737C69.2589 21.2737 69.9461 20.2299 70.4771 19.708L72.2888 17.7738C71.6016 17.344 70.4146 16.3309 69.3214 17.6203L67.3847 20.1378C67.2598 20.3527 67.1349 20.4755 67.0099 20.6597ZM49.7678 18.9711C49.7678 19.7694 50.455 20.5062 51.1734 20.5062H51.4545C52.5478 20.5062 53.3911 18.9404 52.4228 17.8966C52.2979 17.7738 52.1105 17.651 51.9543 17.5896C51.4545 17.344 50.861 17.4054 50.455 17.7124L50.0489 18.1115C49.8927 18.2957 49.7678 18.7255 49.7678 18.9711Z" fill="#464642"/>
<path d="M10.0108 -0.0121932L0.734375 9.10547L10.0108 18.2231L19.2873 9.10547L10.0108 -0.0121932Z" fill="#EA6F0B"/>
<path d="M28.5382 -0.00567091L19.2617 9.11328L28.5395 18.2309L37.816 9.11199L28.5382 -0.00567091Z" fill="#EA6F0B"/>
<path d="M28.5618 18.2031H9.97656V37.8211H28.5618V18.2031Z" fill="#EA6F0B"/>
</g>
<defs>
<clipPath id="clip0_3887_7087">
<rect width="128.192" height="39.0517" fill="white" transform="translate(0.730469)"/>
</clipPath>
</defs>
</svg>
