<svg width="195" height="33" viewBox="0 0 195 33" fill="none" xmlns="http://www.w3.org/2000/svg">
<path d="M173.612 32.3889L177.87 3.8378H182.979L180.579 19.8343L187.934 12.4423H194.747L185.224 21.7507L192.076 32.3889H185.96L180.115 23.0414L178.722 32.3889H173.612Z" fill="#FAFAFA"/>
<path d="M172.064 27.148C170.168 30.7462 166.297 32.9756 161.961 32.9756C155.42 32.9756 151.007 27.9693 151.936 21.7116C152.788 16.0014 157.665 11.8556 163.549 11.8556C167.651 11.8556 171.058 13.8894 172.645 17.2138L167.923 19.6778C167.148 17.7614 165.445 16.6271 163.316 16.6271C160.335 16.6271 157.781 18.9347 157.316 22.1027C156.775 25.5445 158.942 28.204 162.194 28.204C164.516 28.204 166.645 26.7961 167.613 24.6449L172.064 27.148Z" fill="#FAFAFA"/>
<path d="M145.525 6.37995C145.757 4.61998 147.228 3.40753 149.009 3.40753C150.944 3.40753 152.26 4.81553 151.989 6.69287C151.757 8.41377 150.247 9.6653 148.428 9.6653C146.492 9.6653 145.215 8.25731 145.525 6.37995ZM142.351 32.3889L145.331 12.4422H150.44L147.46 32.3889H142.351Z" fill="#FAFAFA"/>
<path d="M133.694 32.3889L137.952 3.8378H143.062L138.804 32.3889H133.694Z" fill="#FAFAFA"/>
<path fill-rule="evenodd" clip-rule="evenodd" d="M106.31 8.10053C105.383 5.36745 105.394 2.30617 106.939 0L111.167 2.80436C110.846 3.28238 110.659 4.20749 110.833 5.34357C113.516 4.21154 115.887 3.93001 116.674 3.93001C117.424 3.93001 119.501 4.01375 121.482 4.70388C123.396 5.37046 126.2 7.01313 126.2 10.5655C126.2 13.3712 124.41 15.0112 122.677 15.7861C121.098 16.4923 119.349 16.6268 118.19 16.569C114.182 16.5491 111.059 14.8732 108.945 12.56C107.225 14.3035 105.877 16.931 105.877 20.9929C105.877 22.1337 106.266 23.9297 107.384 25.3777C108.41 26.7075 110.195 27.9443 113.498 27.9443C116.242 27.9443 118.487 26.4835 120.566 24.1055C117.615 24.2733 115.097 23.36 113.728 22.4956L116.449 18.2261C117.022 18.5877 118.609 19.2157 120.529 19.0393C122.22 18.8838 124.337 18.0921 126.364 15.5422C126.468 15.3902 126.571 15.2425 126.674 15.0999L126.692 15.1129C126.694 15.1099 126.696 15.107 126.698 15.104L126.828 15.1982L126.831 15.1938L127.787 15.8911L130.808 18.0384L130.784 18.0721L130.802 18.0852C130.801 18.0867 130.8 18.0881 130.799 18.0896L130.928 18.1841C128.795 21.0782 128.642 23.4835 129.024 25.2259C129.436 27.1002 130.518 28.4155 131.037 28.8495L127.77 32.7216C126.636 31.7746 125.175 29.9337 124.372 27.4539C121.821 30.3604 118.316 33 113.498 33C108.673 33 105.376 31.0771 103.354 28.4571C101.423 25.9555 100.796 23.0117 100.796 20.9929C100.796 14.7832 103.268 10.6932 106.31 8.10053ZM113.349 9.78596C114.561 10.822 116.344 11.5178 118.411 11.5178C118.912 11.5116 119.96 11.4586 120.594 11.1748C120.887 11.0439 121.009 10.9236 121.051 10.869L121.053 10.8666C121.07 10.8435 121.12 10.7802 121.12 10.5655C121.12 10.3262 121.066 9.91504 119.804 9.47571C118.61 9.05991 117.187 8.98634 116.667 8.98634C116.676 8.9858 116.671 8.98634 116.667 8.98634C116.627 8.98896 116.443 9.00075 116.119 9.04996C115.756 9.10504 115.273 9.19856 114.714 9.34822C114.289 9.46197 113.828 9.60586 113.349 9.78596Z" fill="#92D736"/>
<path d="M96.9081 12.4423L93.9663 32.3889H89.1278L89.3603 30.7462C87.5409 32.1542 85.296 32.9756 82.9344 32.9756C77.0508 32.9756 72.9092 27.8912 73.8381 21.7116C74.6512 16.0796 79.4124 11.8556 84.9862 11.8556C87.8118 11.8556 90.1345 12.9507 91.7603 14.7498L92.0696 12.4423H96.9081ZM79.1799 22.22C78.6766 25.6227 80.8057 28.204 84.0573 28.204C87.1927 28.204 89.8247 25.8573 90.2892 22.6112C90.7925 19.2085 88.6634 16.6271 85.4118 16.6271C82.2764 16.6271 79.6444 18.9738 79.1799 22.22Z" fill="#FAFAFA"/>
<path d="M55.9572 29.7294L58.9374 26.2876C60.4859 27.7738 62.0728 28.5951 63.5439 28.5951C64.8215 28.5951 65.5568 28.0085 65.7115 26.9916C65.8666 26.0138 65.3633 25.4271 63.3503 24.332L62.615 23.9018C59.2861 22.0636 58.0085 20.1471 58.4345 17.4485C58.899 14.0458 61.7245 11.8556 65.7115 11.8556C68.3051 11.8556 70.976 12.7942 72.524 14.2413L69.7757 17.9178C68.4986 16.7836 67.2984 16.236 66.0213 16.236C64.7053 16.236 63.8148 16.8227 63.6986 17.7614C63.5439 18.7 64.2408 19.4432 66.3695 20.4992L66.9502 20.812C70.2018 22.4547 71.4789 24.5276 71.0533 27.3436C70.55 30.8245 67.8406 32.9756 63.931 32.9756C60.8346 32.9756 57.544 31.6458 55.9572 29.7294Z" fill="#FAFAFA"/>
<path d="M48.075 32.3889L52.3328 3.8378H57.4422L53.1844 32.3889H48.075Z" fill="#FAFAFA"/>
<path d="M24.9246 21.6725C25.7761 16.0014 30.6534 11.8556 36.5758 11.8556C43.0787 11.8556 47.5302 16.8618 46.5625 23.1196C45.7109 28.8298 40.8337 32.9756 34.95 32.9756C28.4083 32.9756 23.9569 27.9302 24.9246 21.6725ZM30.305 22.1027C29.7631 25.5445 31.9308 28.204 35.1822 28.204C38.2402 28.204 40.795 25.8573 41.2207 22.6502C41.6852 19.2867 39.5176 16.6271 36.3435 16.6271C33.3243 16.6271 30.7695 18.8956 30.305 22.1027Z" fill="#FAFAFA"/>
<path d="M0 32.3889L4.25791 3.8378H13.3156C20.0122 3.8378 23.9604 7.31867 23.2637 12.0511C22.8379 14.7498 21.096 16.7054 18.1155 17.7614V17.8787C21.096 19.1694 22.6056 21.868 22.1411 25.036C21.4831 29.4947 17.3026 32.3889 11.5738 32.3889H0ZM7.97392 15.6885H12.4641C15.4446 15.6885 17.2639 14.5151 17.5735 12.364C17.9219 10.0956 16.2575 8.53113 13.0834 8.53113H9.05776L7.97392 15.6885ZM6.19332 27.6565H10.877C14.0898 27.6565 16.1026 26.4049 16.4123 24.2147C16.7607 21.8289 14.8252 20.1862 11.6125 20.1862H7.31587L6.19332 27.6565Z" fill="#FAFAFA"/>
</svg>
