<svg width="149" height="35" viewBox="0 0 149 35" fill="none" xmlns="http://www.w3.org/2000/svg">
<g clip-path="url(#clip0_3887_7071)">
<path d="M9.92339 21.8147C6.84652 22.9891 5.42071 23.8149 5.42071 23.8149C5.07534 23.9934 4.63888 24.4171 4.4524 24.7574L2.09965 29.029C1.91281 29.3682 2.0641 29.5485 2.4356 29.4303C2.4356 29.4303 3.37997 29.1274 4.2964 28.8597C6.52254 28.2061 10.637 27.2379 10.637 27.2379C11.0169 27.1489 11.4805 26.7982 11.6674 26.4586L14.9076 20.5757C15.094 20.2354 14.9442 20.0575 14.5734 20.1787C14.5734 20.1787 12.2668 20.9193 9.92339 21.8147Z" fill="#F1511B"/>
<path d="M30.821 24.3448C31.2099 24.3128 31.375 24.0092 31.1881 23.6703L28.0858 18.0376C27.8986 17.6977 27.4299 17.4666 27.0439 17.5245L20.8284 18.5756C20.4457 18.6514 20.286 18.9906 20.4725 19.3298L23.2707 24.4116C23.458 24.7516 23.9281 24.9985 24.3171 24.9633L30.821 24.3448Z" fill="#F1511B"/>
<path d="M26.6016 15.3432L26.0353 14.3147L24.9465 12.3365L23.4873 9.68745C23.3005 9.34748 22.8466 9.17859 22.4802 9.31047C18.231 10.5427 14.0276 12.4414 12.0305 13.7628C10.925 14.4944 9.96362 15.2867 9.96362 15.2867C9.66394 15.5343 9.26553 16.014 9.07833 16.354L6.46257 21.1035C6.27609 21.4419 6.41178 21.5868 6.76587 21.4229C6.76587 21.4229 7.44539 21.1096 8.20618 20.7908C10.7886 19.7063 13.6141 18.7544 16.6057 17.9642C16.6627 17.9498 16.7203 17.9348 16.777 17.92C20.0864 17.067 26.2413 16.073 26.2413 16.073C26.6262 16.0112 26.7888 15.6831 26.6016 15.3432Z" fill="#F36717"/>
<path d="M11.858 12.0602C11.858 12.0602 14.8079 10.3249 16.8079 9.49481C18.5668 8.7643 21.6931 7.86018 21.6931 7.86018C22.0679 7.75166 22.2209 7.38549 22.0348 7.04591L19.1382 1.78762C18.54 0.825659 17.6163 0.86375 17.0438 1.90297L17.0366 1.90836L11.5877 11.8022C11.4008 12.1414 11.5227 12.2578 11.858 12.0602Z" fill="#F68712"/>
<path d="M36.0362 32.477L32.694 26.4092C32.5072 26.0699 32.135 25.8058 31.8683 25.8209L31.6212 25.8385C19.2447 26.6858 10.2056 28.7488 4.802 30.3289C3.19951 30.7975 1.31659 31.4396 1.31659 31.4396C0.947618 31.565 0.685315 31.6354 0.305101 32.2844C0.305101 32.2844 0.276801 32.3369 0.206056 32.4669L0.207872 32.472C-0.260866 33.4836 0.27535 34.286 1.45953 34.286L1.51866 34.2928H34.7837C35.9687 34.2928 36.5041 33.4879 36.0362 32.477Z" fill="#F03C1F"/>
<path d="M42.3626 21.6656H46.6408L45.5868 17.9108C45.0908 16.1648 44.6566 14.1021 44.5017 12.8325C44.3156 14.1021 43.882 16.1393 43.4169 17.9108L42.3626 21.6656ZM47.1675 23.623H41.8354L40.6266 27.9614C40.5337 28.2528 40.4412 28.3843 39.4483 28.3843C39.1079 28.3843 38.4567 28.3577 37.8672 28.3059L43.386 10.1088C43.4478 9.84466 43.7891 9.73828 44.3467 9.73828C44.7803 9.73828 45.2142 9.76519 45.5247 9.81766L51.0738 27.934C51.1351 28.2261 50.9802 28.3843 49.989 28.3843C49.6168 28.3843 49.1208 28.3843 48.5008 28.3315L47.1675 23.623Z" fill="#4F4C4D"/>
<path d="M52.3438 15.7436C53.5533 15.2933 55.5996 14.8438 57.2419 14.8438C60.4962 14.8438 61.6122 15.8226 61.6122 18.3868V27.9091C61.6122 28.3328 61.5509 28.3328 59.0091 28.3328V19.0219C59.0091 17.3566 58.6986 16.7221 57.1491 16.7221C56.4975 16.7221 55.5367 16.8801 54.8547 17.1981V27.9091C54.8547 28.3328 54.7926 28.3328 52.3438 28.3328V15.7436Z" fill="#4F4C4D"/>
<path d="M63.875 9.87409C63.875 8.89454 64.3089 8.89453 66.3859 8.89453V15.8766C67.3474 15.1633 68.6799 14.8467 69.8583 14.8467C72.5241 14.8467 73.0821 16.1156 73.0821 18.337V27.9118C73.0821 28.3347 72.9584 28.3347 70.478 28.3347V18.9457C70.478 17.7822 70.2298 16.83 68.7111 16.83C68.0294 16.83 67.1304 17.0146 66.3859 17.5709V27.9118C66.3859 28.3347 66.3551 28.3347 63.875 28.3347V9.87409Z" fill="#4F4C4D"/>
<path d="M79.7763 21.8528C78.5374 21.8528 77.4827 22.2229 77.4827 24.5242C77.4827 26.4553 78.2885 26.7988 79.4985 26.7988C80.1794 26.7988 80.8611 26.5868 81.1404 26.3496C81.2337 25.4771 81.2337 23.5191 81.2337 22.0914C80.8306 21.9318 80.2106 21.8528 79.7763 21.8528ZM75.2192 15.5581C75.7467 15.267 77.5756 14.8438 79.9319 14.8438C82.5967 14.8438 83.7747 15.6904 83.7747 18.071V19.4725C83.7747 22.5139 83.7442 25.6877 83.5897 27.6986C82.7527 28.1208 81.2954 28.5977 79.2807 28.5977C77.0176 28.6232 74.8477 28.201 74.8477 24.5763C74.8477 20.9008 76.8931 20.239 78.9709 20.239C79.6522 20.239 80.6141 20.3187 81.2337 20.5833V18.494C81.2337 17.2514 80.5517 16.9337 79.3112 16.9337C77.7617 16.9337 76.119 17.1982 75.2192 17.5158C74.941 17.0925 74.8789 16.6164 74.8789 16.2988C74.8789 16.0081 74.9721 15.7162 75.2192 15.5581Z" fill="#4F4C4D"/>
<path d="M86.0078 15.7436C87.2176 15.2933 89.2627 14.8438 90.9063 14.8438C94.1603 14.8438 95.2758 15.8226 95.2758 18.3868V27.9091C95.2758 28.3328 95.2138 28.3328 92.6721 28.3328V19.0219C92.6721 17.3566 92.3631 16.7221 90.812 16.7221C90.1609 16.7221 89.2007 16.8801 88.519 17.1981V27.9091C88.519 28.3328 88.457 28.3328 86.0078 28.3328V15.7436Z" fill="#4F4C4D"/>
<path d="M118.649 27.6458C117.469 28.2017 115.703 28.5981 114.03 28.5981C110.34 28.5981 109.379 27.1708 109.379 24.2077V15.559C109.379 15.1094 109.379 15.1094 111.983 15.1094V24.3931C111.983 26.1114 112.386 26.7202 114.061 26.7202C114.619 26.7202 115.486 26.6145 116.137 26.2444V15.559C116.137 15.1094 116.169 15.1094 118.649 15.1094V27.6458Z" fill="#4F4C4D"/>
<path d="M123.392 21.2167C124.57 21.2441 126.492 21.1916 127.577 20.9271C127.701 20.4513 127.733 19.843 127.733 19.3395C127.701 17.4357 127.299 16.7217 125.965 16.7217C124.694 16.7217 123.578 17.6473 123.392 21.2167ZM130.181 19.1017C130.181 20.2659 130.088 21.5883 129.841 22.5405C127.701 22.8844 124.85 22.9635 123.361 22.9635C123.486 25.7671 124.353 26.5066 126.245 26.5066C127.485 26.5066 128.724 26.1907 129.779 25.6873C129.933 26.0848 129.995 26.7194 129.995 27.142C129.995 27.962 128.042 28.5973 125.717 28.5973C122.834 28.5973 120.758 27.5653 120.758 22.4087C120.758 15.7949 123.517 14.8438 126.245 14.8438C128.847 14.8438 130.181 16.2455 130.181 19.1017Z" fill="#4F4C4D"/>
<path d="M132.07 16.0343C133.28 15.3199 134.768 14.8438 136.287 14.8438C137.868 14.8438 138.457 15.2409 138.457 15.9545C138.457 16.246 138.396 16.7742 138.179 17.2248C137.713 17.0132 137.217 16.9071 136.69 16.9071C136.008 16.9071 135.233 17.0925 134.643 17.5159L134.614 27.9099C134.614 28.3328 134.582 28.3328 132.07 28.3328V16.0343Z" fill="#4F4C4D"/>
<path d="M144.348 21.8528C143.108 21.8528 142.053 22.2229 142.053 24.5242C142.053 26.4553 142.86 26.7988 144.069 26.7988C144.75 26.7988 145.433 26.5868 145.712 26.3496C145.804 25.4771 145.804 23.5191 145.804 22.0914C145.401 21.9318 144.781 21.8528 144.348 21.8528ZM139.791 15.5581C140.318 15.267 142.147 14.8438 144.502 14.8438C147.169 14.8438 148.346 15.6904 148.346 18.071V19.4725C148.346 22.5139 148.315 25.6877 148.16 27.6986C147.323 28.1208 145.867 28.5977 143.851 28.5977C141.589 28.6232 139.418 28.201 139.418 24.5763C139.418 20.9008 141.465 20.239 143.541 20.239C144.223 20.239 145.186 20.3187 145.804 20.5833V18.494C145.804 17.2514 145.123 16.9337 143.882 16.9337C142.333 16.9337 140.69 17.1982 139.791 17.5158C139.513 17.0925 139.45 16.6164 139.45 16.2988C139.45 16.0081 139.543 15.7162 139.791 15.5581Z" fill="#4F4C4D"/>
<path d="M102.457 26.4161C102.254 26.4161 102.063 26.3935 101.883 26.3536C100.649 26.0812 99.936 24.8864 99.7586 22.7838C99.7272 22.432 99.7119 22.0551 99.7119 21.6526C99.7119 21.4001 99.7213 21.1593 99.734 20.9271C99.8079 19.6299 100.082 18.6511 100.559 18.0204C101.108 17.2938 101.9 16.9409 102.982 16.9409C103.551 16.9409 104.119 16.9891 104.677 17.085V25.7272C104.603 25.7844 104.526 25.8379 104.448 25.8886C103.896 26.2432 103.242 26.4161 102.457 26.4161ZM99.6338 32.834C99.1601 32.8476 98.7314 32.8437 98.3893 32.81C98.2483 33.281 98.3417 33.7547 98.4453 34.0608C98.5395 34.3411 98.728 34.5998 99.0277 34.6965C99.166 34.7313 99.3732 34.7586 99.6338 34.7723C99.7637 34.7799 99.5201 34.7712 99.6763 34.7723C102.082 34.7382 103.605 34.1093 105.047 32.8911C105.514 32.4973 105.898 32.0524 106.218 31.568C106.917 30.5152 107.277 29.2585 107.277 27.8039V15.4975L107.123 15.455C105.846 15.1086 104.452 14.9336 102.982 14.9336C100.991 14.9336 99.4929 15.4852 98.5344 16.5729C97.6235 17.6064 97.1498 19.2411 97.1175 21.4248C97.1175 21.5007 97.1133 21.5736 97.1133 21.6526C97.1133 22.5625 97.1914 23.3753 97.3399 24.1016C97.6889 25.7941 98.4385 26.9864 99.5888 27.6727C100.365 28.136 101.32 28.371 102.457 28.371C103.215 28.371 103.96 28.2366 104.677 27.9696V28.0605C104.677 29.3979 104.239 30.4868 103.388 31.3082C103.319 31.3758 103.252 31.4437 103.177 31.5083C102.387 32.176 101.779 32.6098 100.505 32.751C99.9887 32.8092 99.8257 32.8283 99.6338 32.834Z" fill="#4F4C4D"/>
</g>
<defs>
<clipPath id="clip0_3887_7071">
<rect width="148.566" height="33.958" fill="white" transform="translate(0 0.941406)"/>
</clipPath>
</defs>
</svg>
