<svg xmlns="http://www.w3.org/2000/svg" width="512" height="512" viewBox="0 0 512 512">
  <defs>
    <linearGradient id="coverGrad" x1="0" y1="0" x2="1" y2="1">
      <stop offset="0%" stop-color="#023E71"/>
      <stop offset="100%" stop-color="#045493"/>
    </linearGradient>
    <linearGradient id="pageGrad" x1="0" y1="0" x2="0" y2="1">
      <stop offset="0%" stop-color="#FFFDF7"/>
      <stop offset="100%" stop-color="#F1E4C5"/>
    </linearGradient>
    <linearGradient id="pinkGrad" x1="0" y1="0" x2="1" y2="1">
      <stop offset="0%" stop-color="#EF1F46"/>
      <stop offset="100%" stop-color="#C81839"/>
    </linearGradient>
    <filter id="shadow" x="-30%" y="-30%" width="160%" height="160%">
      <feDropShadow dx="0" dy="10" stdDeviation="8" flood-color="#000" flood-opacity=".22"/>
    </filter>
  </defs>

  <g filter="url(#shadow)">
    <rect x="145" y="90" width="222" height="296" rx="26" fill="url(#coverGrad)" stroke="#111" stroke-width="10"/>
    <rect x="168" y="105" width="177" height="266" rx="18" fill="url(#pageGrad)" stroke="#111" stroke-width="8"/>
    <path d="M170 126 H344" stroke="#E2D2AC" stroke-width="5"/>
    <path d="M170 350 H344" stroke="#E2D2AC" stroke-width="5"/>
    <path d="M190 92 v58 l23 -15 l23 15 V92" fill="url(#pinkGrad)" stroke="#111" stroke-width="7"/>
  </g>
  
          <path d="M150 270 C104 268 89 296 78 325" fill="none" stroke="#111" stroke-width="18" stroke-linecap="round"/>
          <path d="M362 270 C405 253 424 217 428 178" fill="none" stroke="#111" stroke-width="18" stroke-linecap="round"/>
          <g fill="#FFFDF7" stroke="#111" stroke-width="8"><circle cx="74" cy="333" r="24"/><circle cx="430" cy="164" r="24"/></g>
          <path d="M430 163 L430 128" stroke="#111" stroke-width="8" stroke-linecap="round"/>
  
      <path d="M214 383 C210 417 198 434 179 447" fill="none" stroke="#111" stroke-width="18" stroke-linecap="round"/>
      <path d="M298 383 C302 417 314 434 333 447" fill="none" stroke="#111" stroke-width="18" stroke-linecap="round"/>
      <g filter="url(#shadow)">
        <path d="M129 437 Q175 413 217 447 Q204 478 149 470 Q125 465 129 437Z" fill="url(#pinkGrad)" stroke="#111" stroke-width="8"/>
        <path d="M383 437 Q337 413 295 447 Q308 478 363 470 Q387 465 383 437Z" fill="url(#pinkGrad)" stroke="#111" stroke-width="8"/>
      </g>
  <g>
    
          <ellipse cx="220" cy="211" rx="24" ry="35" fill="#FFFDF7" stroke="#111" stroke-width="7"/>
          <ellipse cx="292" cy="211" rx="24" ry="35" fill="#FFFDF7" stroke="#111" stroke-width="7"/>
          <ellipse cx="226" cy="219" rx="10" ry="17" fill="#111"/>
          <ellipse cx="298" cy="219" rx="10" ry="17" fill="#111"/>
    <ellipse cx="256" cy="247" rx="8" ry="6" fill="#111"/>
    <path d="M213 261 Q256 300 299 261 Q292 319 256 322 Q220 319 213 261Z" fill="#111"/><path d="M236 302 Q256 289 276 302 Q264 316 256 316 Q248 316 236 302Z" fill="#EF1F46"/>
  </g>
  
  <g transform="translate(388,64)" filter="url(#shadow)">
      <circle cx="42" cy="42" r="31" fill="#F6C445" stroke="#111" stroke-width="8"/>
      <rect x="30" y="70" width="24" height="25" rx="5" fill="#555" stroke="#111" stroke-width="6"/>
      <path d="M42 0 V-18 M6 12 L-8 -2 M78 12 L92 -2" stroke="#111" stroke-width="7" stroke-linecap="round"/>
    </g>
  

</svg>